<svg xmlns="http://www.w3.org/2000/svg" xmlns:xlink="http://www.w3.org/1999/xlink" width="89.007" height="30.836" viewBox="0 0 89.007 30.836">
  <defs>
    <clipPath id="clip-path">
      <rect id="Ret창ngulo_35" data-name="Ret창ngulo 35" width="89.007" height="30.836" transform="translate(5.647 5.753)" fill="none"/>
    </clipPath>
  </defs>
  <g id="pv_oemestrategia2" transform="translate(-5.647 -5.753)">
    <rect id="Ret창ngulo_34" data-name="Ret창ngulo 34" width="89.007" height="30.836" transform="translate(5.647 5.753)" fill="#9e1405"/>
    <g id="Grupo_7226" data-name="Grupo 7226">
      <g id="Grupo_7225" data-name="Grupo 7225" clip-path="url(#clip-path)">
        <path id="Caminho_7134" data-name="Caminho 7134" d="M126.039,18.211c-.412-.661-.816-1.33-1.234-1.985-11.561-18.159-24.59-33.345-38.86-45.349a167.126,167.126,0,0,0-26.062-21.57A136.256,136.256,0,0,0,35.75-63.536a125.048,125.048,0,0,1,36.714,16.9A154.714,154.714,0,0,1,86.521-36.06c14.821,14.926,28.141,33.25,39.518,54.271m-6.169,7.524c-.184-.291-.361-.588-.546-.878C108.231,7.433,95.718-7.117,82.008-18.594A159.741,159.741,0,0,0,56.867-39.45,130.412,130.412,0,0,0,34.563-51.4c17.18,4.661,33.435,13.641,48.3,26.21,13.852,14.07,26.319,31.255,37.005,50.922m-5.874,8c-.052-.081-.1-.165-.153-.246C103.218,16.8,91.221,2.884,78.07-8.066A152.455,152.455,0,0,0,53.853-28.207,124.655,124.655,0,0,0,33.246-39.32C49.56-34.891,65-26.366,79.119-14.438a204.712,204.712,0,0,1,26.129,33.3q4.584,7.2,8.748,14.873m-6.283,7.39c-10-15.508-21.253-28.457-33.579-38.66a145.3,145.3,0,0,0-23.3-19.429A118.957,118.957,0,0,0,31.748-27.32C46.721-23.307,61.1-15.615,74.46-4.537a205.345,205.345,0,0,1,33.253,45.661M69.909,12.7A137.785,137.785,0,0,0,47.823-5.722a113.248,113.248,0,0,0-17.205-9.442c14.3,3.888,27.84,11.285,40.269,21.607a195.478,195.478,0,0,1,30.837,42.534C92.174,34.326,81.463,22.162,69.909,12.7m-7.633,21.27C51.668,22.932,40.1,14.534,27.907,8.97c12.4,3.367,24.166,9.708,34.99,18.554A174.838,174.838,0,0,1,89.726,64.656a138.044,138.044,0,0,0-27.45-30.69m21.58,38.762A128.117,128.117,0,0,0,58.383,44.539,106.992,106.992,0,0,0,26.352,20.965,87.832,87.832,0,0,1,58.771,37.927a164.686,164.686,0,0,1,25.085,34.8M77.986,80.8A118.114,118.114,0,0,0,54.408,55.045,100.767,100.767,0,0,0,24.867,33,81.517,81.517,0,0,1,54.843,48.538,154.6,154.6,0,0,1,77.986,80.8M203.168-75.432h-4.8q2.839,5.289,5.568,10.706-2.975-5.43-6.081-10.706h-9.81q4.727,8.372,9.147,17.089-4.843-8.75-10.042-17.089h-9.667q6.867,11.517,13.108,23.755-5.277-9.446-10.974-18.4-1.725-2.709-3.481-5.352h-9.495q9.2,14.551,17.323,30.372-4.74-8.4-9.828-16.39-4.593-7.214-9.4-13.982h-9.271q2.556,3.789,5.051,7.7Q169.487-53.635,177.4-38.3q-4.233-7.424-8.746-14.52-7.6-11.938-15.807-22.613h-8.98q5.7,7.869,11.12,16.362,8.412,13.215,15.863,27.561-3.726-6.469-7.677-12.679a293.64,293.64,0,0,0-22.817-31.244h-8.6q9.218,11.71,17.7,25.022Q157.364-38,164.39-24.55q-3.261-5.606-6.7-11.008a272.837,272.837,0,0,0-30.635-39.874h-8.066a286.3,286.3,0,0,1,24.943,33.68q7.422,11.658,14.044,24.26-2.815-4.792-5.768-9.435a251.784,251.784,0,0,0-39.561-48.5h-7.329a264.943,264.943,0,0,1,33.087,42.34q6.927,10.878,13.128,22.612-2.355-3.962-4.806-7.817c-13.47-21.157-28.61-38.925-45.174-53.048-1.4-1.392-2.819-2.748-4.243-4.087h-8.58q5.011,3.72,9.865,7.872c17.295,17.293,32.8,38.654,45.966,63.231q-1.633-2.7-3.315-5.337c-13-20.419-27.62-37.553-43.622-51.151A197.44,197.44,0,0,0,81.24-75.432H68.34q5.151,2.865,10.213,6.224A169.373,169.373,0,0,1,94.9-56.831a243,243,0,0,1,32.458,41.056q6.077,9.544,11.54,19.769-1.542-2.539-3.126-5.029C123.248-20.7,109.16-37.185,93.738-50.25A181.577,181.577,0,0,0,65.912-73.179q-1.74-1.155-3.491-2.253H52.949c.13.072.261.139.39.212-.178-.073-.357-.14-.535-.212H37.652c18.879,5.2,36.737,15.14,53.057,29.034,15.582,15.688,29.576,34.97,41.509,57.1-.641-1.039-1.278-2.082-1.932-3.108-12.03-18.9-25.576-34.721-40.409-47.251A174.305,174.305,0,0,0,62.9-61.936a142.193,142.193,0,0,0-25.411-13.5H22.338A127.237,127.237,0,0,1,50.671-63.705a115.616,115.616,0,0,0-43.4-8.51c-.753,0-1.5.01-2.255.025v5.672A116.877,116.877,0,0,1,48.1-52.135,110.4,110.4,0,0,0,7.275-60.017c-.753,0-1.5.012-2.255.028v5.753A111.152,111.152,0,0,1,45.575-40.541a105.2,105.2,0,0,0-38.3-7.277c-.753,0-1.5.012-2.255.029v5.849A106.417,106.417,0,0,1,42.926-28.994,99.966,99.966,0,0,0,7.275-35.618c-.753,0-1.5.011-2.255.028v5.949A101.163,101.163,0,0,1,40.394-17.4,94.777,94.777,0,0,0,7.275-23.42c-.753,0-1.5.013-2.255.032v6.058A95.864,95.864,0,0,1,38.167-5.712,90.171,90.171,0,0,0,7.275-11.22c-.753,0-1.505.013-2.255.034v6.179a90.558,90.558,0,0,1,30.3,10.783A84.885,84.885,0,0,0,7.275.979c-.753,0-1.505.014-2.255.036v6.3A85.352,85.352,0,0,1,32.969,17.467,79.7,79.7,0,0,0,7.275,13.178c-.753,0-1.505.015-2.255.038V19.64a80.186,80.186,0,0,1,25.593,9.517A74.506,74.506,0,0,0,7.275,25.376c-.753,0-1.505.016-2.255.04v6.546a75.108,75.108,0,0,1,23.333,8.917,69.371,69.371,0,0,0-21.078-3.3c-.753,0-1.505.017-2.255.042v6.707a69.957,69.957,0,0,1,20.906,8.238A64.127,64.127,0,0,0,7.275,49.775c-.753,0-1.505.018-2.255.045v6.888a64.823,64.823,0,0,1,18.61,7.6,58.972,58.972,0,0,0-16.355-2.33c-.753,0-1.505.02-2.255.05V69.1A59.6,59.6,0,0,1,21.4,76.066,53.815,53.815,0,0,0,7.275,74.173c-.753,0-1.505.021-2.255.053v7.3a54.66,54.66,0,0,1,14.123,6.323A48.677,48.677,0,0,0,7.275,86.372c-.754,0-1.505.023-2.255.059v7.588a49.811,49.811,0,0,1,11.886,5.632,43.589,43.589,0,0,0-9.631-1.08c-.754,0-1.506.026-2.255.066v7.911A44.8,44.8,0,0,1,14.7,111.5a38.461,38.461,0,0,0-7.429-.728c-.755,0-1.506.03-2.255.074v8.329a40.323,40.323,0,0,1,7.551,4.224,33.286,33.286,0,0,0-5.3-.427c-.755,0-1.506.033-2.255.084v8.9a35.624,35.624,0,0,1,5.362,3.382,28.422,28.422,0,0,0-3.107-.172c-.756,0-1.507.034-2.255.094v9.752A31.4,31.4,0,0,1,8.26,147.4c-.328-.014-.655-.037-.985-.037-.757,0-1.508.043-2.255.118V158.6c.368.323.734.655,1.094,1.006-.366.023-.731.061-1.094.107V178.1a7.058,7.058,0,0,1,2.255-.382c.043,0,.084,0,.126.005a44,44,0,0,1,3.823,11.7h6.064c-.264-1.632-.591-3.235-.988-4.795a25.25,25.25,0,0,1,1.976,4.795h6.948a72.525,72.525,0,0,0-2.28-11.387,43.41,43.41,0,0,1,3.642,11.387h6.5a89.962,89.962,0,0,0-3.566-18.062,61.21,61.21,0,0,1,5.1,18.062h6.312a107.187,107.187,0,0,0-4.967-25.086,79.551,79.551,0,0,1,6.593,25.086h6.18a124.582,124.582,0,0,0-6.293-31.924,97.185,97.185,0,0,1,8,31.924h6.1a141.912,141.912,0,0,0-7.689-38.927,114.6,114.6,0,0,1,9.463,38.927h6.007a159.193,159.193,0,0,0-9.11-46.029,131.927,131.927,0,0,1,10.951,46.029h5.942a176.437,176.437,0,0,0-10.553-53.152c7.117,15.592,11.4,33.836,12.459,53.152H79.89a193.532,193.532,0,0,0-12.073-60.477c8.118,17.7,12.964,38.482,14.04,60.477h5.8c-.968-24.37-5.685-47.627-13.721-68.119,8.935,19.372,14.615,42.762,15.75,68.119h5.737c-.995-27.126-6.271-53-15.336-75.676,9.97,21.464,16.274,47.473,17.428,75.676h5.691c-1.02-29.967-6.906-58.527-17.059-83.432,11.06,23.593,18.021,52.3,19.195,83.432h5.628c-1.047-32.963-7.591-64.354-18.935-91.569,12.64,26.5,19.97,58.116,21.129,91.569h5.571c-1.068-35.858-8.228-69.991-20.705-99.449,13.808,28.722,21.78,63.084,22.954,99.449H126.5c-1.083-38.641-8.824-75.414-22.366-107.047,14.44,30.032,23.445,66.949,24.669,107.047h5.462c-1.105-41.708-9.543-81.37-24.339-115.33,15.688,32.248,25.455,72.059,26.7,115.33h5.407c-1.123-44.764-10.251-87.312-26.3-123.586,16.931,34.456,27.457,77.153,28.715,123.586h5.348c-1.148-48.2-11.112-93.974-28.674-132.751,19.045,37.92,29.9,83.975,31.143,132.751h5.291C156.4,138.4,145.829,89.948,127.162,48.991c19.519,38.917,31.623,87.517,32.911,140.427h5.24c-1.175-54.18-12.476-105.6-32.478-148.908,20.838,41.154,33.75,92.728,35.053,148.908h5.184c-1.2-57.824-13.418-112.667-35.1-158.548,23.268,44.943,36.451,100.1,37.73,158.548h5.129c-1.2-60.613-14.014-118.1-36.78-166.137,23.558,45.66,38.135,103.295,39.464,166.137h5.076c-1.231-64.588-15.115-125.782-39.811-176.532,26.357,49.75,41.243,111.282,42.551,176.532h5.02c-1.233-67.262-15.661-131-41.361-183.847,26.44,50.229,42.8,114.111,44.154,183.847h4.971A493.2,493.2,0,0,0,187.63,69.886,404.028,404.028,0,0,0,160.209-3.741c28.03,52.577,45.379,119.76,46.75,193.159h4.918a511.4,511.4,0,0,0-17.1-124.284A416.2,416.2,0,0,0,164.6-14.693c14.055,25.685,25.411,54.441,33.848,85.77a488.62,488.62,0,0,1,16.328,118.341h4.863A529.762,529.762,0,0,0,201.922,60.382,429.8,429.8,0,0,0,169.836-23.94c14.9,26.968,26.921,57.233,35.812,90.251a506.89,506.89,0,0,1,16.945,123.107H227.4A548.083,548.083,0,0,0,209.067,55.63a443.057,443.057,0,0,0-34.111-89c15.805,28.294,28.523,60.129,37.89,94.915A525.25,525.25,0,0,1,230.41,189.418h4.751a566.355,566.355,0,0,0-18.947-138.54c-9.15-33.979-21.267-65.368-36.146-93.689C196.781-13.19,210.2,20.222,220.044,56.78a543.59,543.59,0,0,1,18.181,132.638h4.694A584.562,584.562,0,0,0,223.36,46.127c-9.641-35.8-22.476-68.814-38.274-98.517,17.663,30.979,31.818,66.012,42.156,104.4a561.926,561.926,0,0,1,18.8,137.4h4.639A602.864,602.864,0,0,0,230.506,41.374c-10.124-37.6-23.661-72.21-40.364-103.273,18.6,32.318,33.473,68.95,44.3,109.148a580.253,580.253,0,0,1,19.41,142.169h4.585A621.186,621.186,0,0,0,237.653,36.623c-10.647-39.536-24.96-75.867-42.664-108.376,19.63,33.737,35.3,72.087,46.65,114.236a598.646,598.646,0,0,1,20.023,146.935h4.531c-.741-54.576-7.926-107.532-21.394-157.547-10.5-38.982-24.458-74.934-41.631-107.3" fill="#e95a00"/>
      </g>
    </g>
  </g>
</svg>
