<svg xmlns="http://www.w3.org/2000/svg" xmlns:xlink="http://www.w3.org/1999/xlink" width="18.729" height="15.88" viewBox="0 0 18.729 15.88">
  <defs>
    <clipPath id="clip-path">
      <path id="Caminho_1719" data-name="Caminho 1719" d="M80.395-31.182H99.124v-15.88H80.395Z" fill="none"/>
    </clipPath>
  </defs>
  <g id="tecla_2" transform="translate(-134.395 -200.997)">
    <g id="Grupo_1771" data-name="Grupo 1771" transform="translate(54 248.059)" clip-path="url(#clip-path)">
      <g id="Grupo_1769" data-name="Grupo 1769" transform="translate(96.624 -35.682)">
        <path id="Caminho_1717" data-name="Caminho 1717" d="M0,0A2,2,0,0,1-2,2h-9.729a2,2,0,0,1-2-2V-6.881a2,2,0,0,1,2-2H-2a2,2,0,0,1,2,2Z" fill="#fff"/>
      </g>
      <g id="Grupo_1770" data-name="Grupo 1770" transform="translate(96.624 -35.682)">
        <path id="Caminho_1718" data-name="Caminho 1718" d="M0,0A2,2,0,0,1-2,2h-9.729a2,2,0,0,1-2-2V-6.881a2,2,0,0,1,2-2H-2a2,2,0,0,1,2,2Z" fill="none" stroke="#2b2e34" stroke-width="0.75"/>
      </g>
    </g>
    <text id="_2" data-name="2" transform="translate(141.84 211.685)" fill="#2b2e34" font-size="8" font-family="HelveticaNeueLTStd-MdCn, Helvetica Neue LT Std" font-weight="500"><tspan x="0" y="0">2</tspan></text>
  </g>
</svg>
