<svg xmlns="http://www.w3.org/2000/svg" xmlns:xlink="http://www.w3.org/1999/xlink" width="17.73" height="14.882" viewBox="0 0 17.73 14.882">
  <defs>
    <clipPath id="clip-path">
      <path id="Caminho_1785" data-name="Caminho 1785" d="M.5-1H18.23V-15.882H.5Z" fill="none"/>
    </clipPath>
  </defs>
  <g id="tecla_on_c" transform="translate(-54.5 -232.177)">
    <g id="Grupo_1836" data-name="Grupo 1836" transform="translate(54 248.059)" clip-path="url(#clip-path)">
      <g id="Grupo_1830" data-name="Grupo 1830" transform="translate(16.23 -5)">
        <path id="Caminho_1779" data-name="Caminho 1779" d="M0,0A2,2,0,0,1-2,2h-9.73a2,2,0,0,1-2-2V-6.881a2,2,0,0,1,2-2H-2a2,2,0,0,1,2,2Z" fill="#2b2e34"/>
      </g>
      <g id="Grupo_1831" data-name="Grupo 1831" transform="translate(16.23 -5)">
        <path id="Caminho_1780" data-name="Caminho 1780" d="M0,0A2,2,0,0,1-2,2h-9.73a2,2,0,0,1-2-2V-6.881a2,2,0,0,1,2-2H-2a2,2,0,0,1,2,2Z" fill="none" stroke="#2b2e34" stroke-width="0.5"/>
      </g>
      <g id="Grupo_1832" data-name="Grupo 1832" transform="translate(5.046 -9.445)">
        <path id="Caminho_1781" data-name="Caminho 1781" d="M0,0C.473,0,.557-.4.557-1.217.557-1.93.473-2.434,0-2.434s-.553.5-.553,1.217C-.553-.4-.469,0,0,0M0-2.914c.941,0,1.205.695,1.205,1.7S.9.48,0,.48s-1.2-.695-1.2-1.7.263-1.7,1.2-1.7" fill="#fff"/>
      </g>
      <g id="Grupo_1833" data-name="Grupo 1833" transform="translate(6.752 -12.275)">
        <path id="Caminho_1782" data-name="Caminho 1782" d="M0,0H.611V.378H.629a.925.925,0,0,1,.828-.462c.49,0,.8.223.8.876V3.227H1.611V1.014c0-.42-.125-.582-.449-.582C.9.432.646.643.646,1.061V3.227H0Z" fill="#fff"/>
      </g>
      <g id="Grupo_1834" data-name="Grupo 1834" transform="translate(14.435 -5.664)">
        <path id="Caminho_1783" data-name="Caminho 1783" d="M0,0C-.043.773-.307,1.26-1.1,1.26c-.935,0-1.2-.7-1.2-1.7s.264-1.7,1.2-1.7A1.04,1.04,0,0,1,.006-.979H-.643c0-.3-.084-.689-.461-.677-.468,0-.552.5-.552,1.219S-1.572.779-1.1.779C-.744.785-.613.486-.613,0Z" fill="#fff"/>
      </g>
      <g id="Grupo_1835" data-name="Grupo 1835" transform="translate(4.904 -5.348)">
        <path id="Caminho_1784" data-name="Caminho 1784" d="M0,0,8.938-5.468" fill="none" stroke="#fff" stroke-miterlimit="10" stroke-width="0.5"/>
      </g>
    </g>
  </g>
</svg>
