<svg xmlns="http://www.w3.org/2000/svg" xmlns:xlink="http://www.w3.org/1999/xlink" width="18.73" height="15.88" viewBox="0 0 18.73 15.88">
  <defs>
    <clipPath id="clip-path">
      <path id="Caminho_1754" data-name="Caminho 1754" d="M164.423-125.15h18.73v-15.88h-18.73Z" fill="none"/>
    </clipPath>
  </defs>
  <g id="tecla_divisao" transform="translate(-218.423 -107.029)">
    <g id="tecla_divisao-2" data-name="tecla_divisao" transform="translate(54 248.059)" clip-path="url(#clip-path)">
      <g id="Grupo_1801" data-name="Grupo 1801" transform="translate(180.653 -129.65)">
        <path id="Caminho_1749" data-name="Caminho 1749" d="M0,0A2,2,0,0,1-2,2h-9.73a2,2,0,0,1-2-2V-6.88a2,2,0,0,1,2-2H-2a2,2,0,0,1,2,2Z" fill="#fff"/>
      </g>
      <g id="Grupo_1802" data-name="Grupo 1802" transform="translate(180.653 -129.65)">
        <path id="Caminho_1750" data-name="Caminho 1750" d="M0,0A2,2,0,0,1-2,2h-9.73a2,2,0,0,1-2-2V-6.88a2,2,0,0,1,2-2H-2a2,2,0,0,1,2,2Z" fill="none" stroke="#2b2e34" stroke-width="0.75"/>
      </g>
      <g id="Grupo_1803" data-name="Grupo 1803" transform="translate(170.965 -133.09)">
        <path id="Caminho_1751" data-name="Caminho 1751" d="M0,0H5.645" fill="none" stroke="#2b2e34" stroke-miterlimit="10" stroke-width="0.6"/>
      </g>
      <g id="Grupo_1804" data-name="Grupo 1804" transform="translate(174.436 -135.23)">
        <path id="Caminho_1752" data-name="Caminho 1752" d="M0,0A.648.648,0,0,0-.648-.648.649.649,0,0,0-1.3,0,.649.649,0,0,0-.648.648.648.648,0,0,0,0,0" fill="#2b2e34"/>
      </g>
      <g id="Grupo_1805" data-name="Grupo 1805" transform="translate(174.436 -130.949)">
        <path id="Caminho_1753" data-name="Caminho 1753" d="M0,0A.648.648,0,0,0-.648-.647.648.648,0,0,0-1.3,0,.649.649,0,0,0-.648.648.648.648,0,0,0,0,0" fill="#2b2e34"/>
      </g>
    </g>
  </g>
</svg>
