<svg xmlns="http://www.w3.org/2000/svg" xmlns:xlink="http://www.w3.org/1999/xlink" width="18.73" height="15.88" viewBox="0 0 18.73 15.88">
  <defs>
    <clipPath id="clip-path">
      <path id="Caminho_1797" data-name="Caminho 1797" d="M0-62.365H18.73v-15.88H0Z" fill="none"/>
    </clipPath>
  </defs>
  <g id="tecla_raiz_quadrada" transform="translate(-54 -169.814)">
    <g id="Grupo_1847" data-name="Grupo 1847" transform="translate(54 248.059)" clip-path="url(#clip-path)">
      <g id="Grupo_1844" data-name="Grupo 1844" transform="translate(16.23 -66.864)">
        <path id="Caminho_1794" data-name="Caminho 1794" d="M0,0A2,2,0,0,1-2,2h-9.73a2,2,0,0,1-2-2V-6.88a2,2,0,0,1,2-2H-2a2,2,0,0,1,2,2Z" fill="#fff"/>
      </g>
      <g id="Grupo_1845" data-name="Grupo 1845" transform="translate(16.23 -66.864)">
        <path id="Caminho_1795" data-name="Caminho 1795" d="M0,0A2,2,0,0,1-2,2h-9.73a2,2,0,0,1-2-2V-6.88a2,2,0,0,1,2-2H-2a2,2,0,0,1,2,2Z" fill="none" stroke="#2b2e34" stroke-width="0.75"/>
      </g>
      <g id="Grupo_1846" data-name="Grupo 1846" transform="translate(6.177 -71.484)">
        <path id="Caminho_1796" data-name="Caminho 1796" d="M0,0,1.615,4.141l1.44-5.1H6.941" fill="none" stroke="#2b2e34" stroke-linejoin="round" stroke-miterlimit="10" stroke-width="0.5"/>
      </g>
    </g>
  </g>
</svg>
