<svg xmlns="http://www.w3.org/2000/svg" xmlns:xlink="http://www.w3.org/1999/xlink" width="19.132" height="15.88" viewBox="0 0 19.132 15.88">
  <defs>
    <clipPath id="clip-path">
      <path id="Caminho_1764" data-name="Caminho 1764" d="M123.928-125.15H143.06v-15.88H123.928Z" fill="none"/>
    </clipPath>
  </defs>
  <g id="tecla_m_menos" transform="translate(-177.928 -107.029)">
    <g id="Grupo_1815" data-name="Grupo 1815" transform="translate(54 248.059)" clip-path="url(#clip-path)">
      <g id="Grupo_1813" data-name="Grupo 1813" transform="translate(140.158 -129.65)">
        <path id="Caminho_1762" data-name="Caminho 1762" d="M0,0A2,2,0,0,1-2,2h-9.729a2,2,0,0,1-2-2V-6.88a2,2,0,0,1,2-2H-2a2,2,0,0,1,2,2Z" fill="#fff"/>
      </g>
      <g id="Grupo_1814" data-name="Grupo 1814" transform="translate(140.158 -129.65)">
        <path id="Caminho_1763" data-name="Caminho 1763" d="M0,0A2,2,0,0,1-2,2h-9.729a2,2,0,0,1-2-2V-6.88a2,2,0,0,1,2-2H-2a2,2,0,0,1,2,2Z" fill="none" stroke="#2b2e34" stroke-width="0.75"/>
      </g>
    </g>
    <text id="M-" transform="translate(183.535 117.433)" fill="#2b2e34" font-size="7" font-family="HelveticaNeueLTStd-MdCn, Helvetica Neue LT Std" font-weight="500"><tspan x="0" y="0">M-</tspan></text>
  </g>
</svg>
