<svg xmlns="http://www.w3.org/2000/svg" xmlns:xlink="http://www.w3.org/1999/xlink" width="18.73" height="15.881" viewBox="0 0 18.73 15.881">
  <defs>
    <clipPath id="clip-path">
      <path id="Caminho_1758" data-name="Caminho 1758" d="M123.928-1h18.73V-16.881h-18.73Z" fill="none"/>
    </clipPath>
  </defs>
  <g id="tecla_igual" transform="translate(-177.928 -231.178)">
    <g id="Grupo_1809" data-name="Grupo 1809" transform="translate(54 248.059)" clip-path="url(#clip-path)">
      <g id="Grupo_1807" data-name="Grupo 1807" transform="translate(140.158 -5.5)">
        <path id="Caminho_1755" data-name="Caminho 1755" d="M0,0A2,2,0,0,1-2,2h-9.729a2,2,0,0,1-2-2V-6.881a2,2,0,0,1,2-2H-2a2,2,0,0,1,2,2Z" fill="#fff"/>
      </g>
      <g id="Grupo_1808" data-name="Grupo 1808" transform="translate(140.158 -5.5)">
        <path id="Caminho_1756" data-name="Caminho 1756" d="M0,0A2,2,0,0,1-2,2h-9.729a2,2,0,0,1-2-2V-6.881a2,2,0,0,1,2-2H-2a2,2,0,0,1,2,2Z" fill="none" stroke="#2b2e34" stroke-width="0.75"/>
      </g>
      <path id="Caminho_1757" data-name="Caminho 1757" d="M131.523-8.513h3.543v.6h-3.543Zm0-1.456h3.543v.6h-3.543Z" fill="#2b2e34"/>
    </g>
  </g>
</svg>
