<svg xmlns="http://www.w3.org/2000/svg" xmlns:xlink="http://www.w3.org/1999/xlink" width="18.73" height="15.88" viewBox="0 0 18.73 15.88">
  <defs>
    <clipPath id="clip-path">
      <path id="Caminho_1767" data-name="Caminho 1767" d="M36.863-125.65h18.73v-15.88H36.863Z" fill="none"/>
    </clipPath>
  </defs>
  <g id="tecla_mr" transform="translate(-90.863 -106.529)">
    <g id="Grupo_1818" data-name="Grupo 1818" transform="translate(54 248.059)" clip-path="url(#clip-path)">
      <g id="Grupo_1816" data-name="Grupo 1816" transform="translate(53.093 -130.15)">
        <path id="Caminho_1765" data-name="Caminho 1765" d="M0,0A2,2,0,0,1-2,2h-9.73a2,2,0,0,1-2-2V-6.88a2,2,0,0,1,2-2H-2a2,2,0,0,1,2,2Z" fill="#fff"/>
      </g>
      <g id="Grupo_1817" data-name="Grupo 1817" transform="translate(53.093 -130.15)">
        <path id="Caminho_1766" data-name="Caminho 1766" d="M0,0A2,2,0,0,1-2,2h-9.73a2,2,0,0,1-2-2V-6.88a2,2,0,0,1,2-2H-2a2,2,0,0,1,2,2Z" fill="none" stroke="#2b2e34" stroke-width="0.75"/>
      </g>
    </g>
    <text id="MR" transform="translate(95.823 116.933)" fill="#2b2e34" font-size="7" font-family="HelveticaNeueLTStd-MdCn, Helvetica Neue LT Std" font-weight="500"><tspan x="0" y="0">MR</tspan></text>
  </g>
</svg>
