<svg xmlns="http://www.w3.org/2000/svg" xmlns:xlink="http://www.w3.org/1999/xlink" width="18.73" height="15.881" viewBox="0 0 18.73 15.881">
  <defs>
    <clipPath id="clip-path">
      <path id="Caminho_1772" data-name="Caminho 1772" d="M164.423-93.545h18.73v-15.881h-18.73Z" fill="none"/>
    </clipPath>
  </defs>
  <g id="tecla_multiplicacao" transform="translate(-218.423 -138.633)">
    <g id="Grupo_1823" data-name="Grupo 1823" transform="translate(54 248.059)" clip-path="url(#clip-path)">
      <g id="Grupo_1819" data-name="Grupo 1819" transform="translate(180.653 -98.045)">
        <path id="Caminho_1768" data-name="Caminho 1768" d="M0,0A2,2,0,0,1-2,2h-9.73a2,2,0,0,1-2-2V-6.88a2,2,0,0,1,2-2H-2a2,2,0,0,1,2,2Z" fill="#fff"/>
      </g>
      <g id="Grupo_1820" data-name="Grupo 1820" transform="translate(180.653 -98.045)">
        <path id="Caminho_1769" data-name="Caminho 1769" d="M0,0A2,2,0,0,1-2,2h-9.73a2,2,0,0,1-2-2V-6.88a2,2,0,0,1,2-2H-2a2,2,0,0,1,2,2Z" fill="none" stroke="#2b2e34" stroke-width="0.75"/>
      </g>
      <g id="Grupo_1821" data-name="Grupo 1821" transform="translate(171.792 -103.481)">
        <path id="Caminho_1770" data-name="Caminho 1770" d="M0,0,3.992,3.991" fill="none" stroke="#2b2e34" stroke-miterlimit="10" stroke-width="0.6"/>
      </g>
      <g id="Grupo_1822" data-name="Grupo 1822" transform="translate(171.792 -99.49)">
        <path id="Caminho_1771" data-name="Caminho 1771" d="M0,0,3.992-3.991" fill="none" stroke="#2b2e34" stroke-miterlimit="10" stroke-width="0.6"/>
      </g>
    </g>
  </g>
</svg>
