<svg xmlns="http://www.w3.org/2000/svg" xmlns:xlink="http://www.w3.org/1999/xlink" width="18.73" height="15.88" viewBox="0 0 18.73 15.88">
  <defs>
    <clipPath id="clip-path">
      <path id="Caminho_1731" data-name="Caminho 1731" d="M123.928-61.941h18.73v-15.88h-18.73Z" fill="none"/>
    </clipPath>
  </defs>
  <g id="tecla_6" transform="translate(-177.928 -170.238)">
    <g id="Grupo_1783" data-name="Grupo 1783" transform="translate(54 248.059)" clip-path="url(#clip-path)">
      <g id="Grupo_1781" data-name="Grupo 1781" transform="translate(140.158 -66.441)">
        <path id="Caminho_1729" data-name="Caminho 1729" d="M0,0A2,2,0,0,1-2,2h-9.729a2,2,0,0,1-2-2V-6.88a2,2,0,0,1,2-2H-2a2,2,0,0,1,2,2Z" fill="#fff"/>
      </g>
      <g id="Grupo_1782" data-name="Grupo 1782" transform="translate(140.158 -66.441)">
        <path id="Caminho_1730" data-name="Caminho 1730" d="M0,0A2,2,0,0,1-2,2h-9.729a2,2,0,0,1-2-2V-6.88a2,2,0,0,1,2-2H-2a2,2,0,0,1,2,2Z" fill="none" stroke="#2b2e34" stroke-width="0.75"/>
      </g>
    </g>
    <text id="_6" data-name="6" transform="translate(185.374 180.926)" fill="#2b2e34" font-size="8" font-family="HelveticaNeueLTStd-MdCn, Helvetica Neue LT Std" font-weight="500"><tspan x="0" y="0">6</tspan></text>
  </g>
</svg>
