<svg xmlns="http://www.w3.org/2000/svg" xmlns:xlink="http://www.w3.org/1999/xlink" width="18.731" height="15.881" viewBox="0 0 18.731 15.881">
  <defs>
    <clipPath id="clip-path">
      <path id="Caminho_1734" data-name="Caminho 1734" d="M36.864-93.545H55.6v-15.881H36.864Z" fill="none"/>
    </clipPath>
  </defs>
  <g id="tecla_7" transform="translate(-90.864 -138.633)">
    <g id="Grupo_1786" data-name="Grupo 1786" transform="translate(54 248.059)" clip-path="url(#clip-path)">
      <g id="Grupo_1784" data-name="Grupo 1784" transform="translate(53.094 -98.045)">
        <path id="Caminho_1732" data-name="Caminho 1732" d="M0,0A2,2,0,0,1-2,2h-9.73a2,2,0,0,1-2-2V-6.88a2,2,0,0,1,2-2H-2a2,2,0,0,1,2,2Z" fill="#fff"/>
      </g>
      <g id="Grupo_1785" data-name="Grupo 1785" transform="translate(53.094 -98.045)">
        <path id="Caminho_1733" data-name="Caminho 1733" d="M0,0A2,2,0,0,1-2,2h-9.73a2,2,0,0,1-2-2V-6.88a2,2,0,0,1,2-2H-2a2,2,0,0,1,2,2Z" fill="none" stroke="#2b2e34" stroke-width="0.75"/>
      </g>
    </g>
    <text id="_7" data-name="7" transform="translate(98.31 149.321)" fill="#2b2e34" font-size="8" font-family="HelveticaNeueLTStd-MdCn, Helvetica Neue LT Std" font-weight="500"><tspan x="0" y="0">7</tspan></text>
  </g>
</svg>
