<svg xmlns="http://www.w3.org/2000/svg" xmlns:xlink="http://www.w3.org/1999/xlink" width="18.73" height="15.88" viewBox="0 0 18.73 15.88">
  <defs>
    <clipPath id="clip-path">
      <path id="Caminho_1761" data-name="Caminho 1761" d="M80.4-125.15h18.73v-15.88H80.4Z" fill="none"/>
    </clipPath>
  </defs>
  <g id="tecla_m_mais" transform="translate(-134.396 -107.029)">
    <g id="Grupo_1812" data-name="Grupo 1812" transform="translate(54 248.059)" clip-path="url(#clip-path)">
      <g id="Grupo_1810" data-name="Grupo 1810" transform="translate(96.626 -129.65)">
        <path id="Caminho_1759" data-name="Caminho 1759" d="M0,0A2,2,0,0,1-2,2h-9.73a2,2,0,0,1-2-2V-6.88a2,2,0,0,1,2-2H-2a2,2,0,0,1,2,2Z" fill="#fff"/>
      </g>
      <g id="Grupo_1811" data-name="Grupo 1811" transform="translate(96.626 -129.65)">
        <path id="Caminho_1760" data-name="Caminho 1760" d="M0,0A2,2,0,0,1-2,2h-9.73a2,2,0,0,1-2-2V-6.88a2,2,0,0,1,2-2H-2a2,2,0,0,1,2,2Z" fill="none" stroke="#2b2e34" stroke-width="0.75"/>
      </g>
    </g>
    <text id="M_" data-name="M+" transform="translate(139.135 117.433)" fill="#2b2e34" font-size="7" font-family="HelveticaNeueLTStd-MdCn, Helvetica Neue LT Std" font-weight="500"><tspan x="0" y="0">M+</tspan></text>
  </g>
</svg>
