<svg xmlns="http://www.w3.org/2000/svg" xmlns:xlink="http://www.w3.org/1999/xlink" width="18.729" height="15.88" viewBox="0 0 18.729 15.88">
  <defs>
    <clipPath id="clip-path">
      <path id="Caminho_1722" data-name="Caminho 1722" d="M124.331-31.182H143.06v-15.88H124.331Z" fill="none"/>
    </clipPath>
  </defs>
  <g id="tecla_3" transform="translate(-178.331 -200.997)">
    <g id="Grupo_1774" data-name="Grupo 1774" transform="translate(54 248.059)" clip-path="url(#clip-path)">
      <g id="Grupo_1772" data-name="Grupo 1772" transform="translate(140.561 -35.682)">
        <path id="Caminho_1720" data-name="Caminho 1720" d="M0,0A2,2,0,0,1-2,2h-9.729a2,2,0,0,1-2-2V-6.881a2,2,0,0,1,2-2H-2a2,2,0,0,1,2,2Z" fill="#fff"/>
      </g>
      <g id="Grupo_1773" data-name="Grupo 1773" transform="translate(140.561 -35.682)">
        <path id="Caminho_1721" data-name="Caminho 1721" d="M0,0A2,2,0,0,1-2,2h-9.729a2,2,0,0,1-2-2V-6.881a2,2,0,0,1,2-2H-2a2,2,0,0,1,2,2Z" fill="none" stroke="#2b2e34" stroke-width="0.75"/>
      </g>
    </g>
    <text id="_3" data-name="3" transform="translate(185.777 211.685)" fill="#2b2e34" font-size="8" font-family="HelveticaNeueLTStd-MdCn, Helvetica Neue LT Std" font-weight="500"><tspan x="0" y="0">3</tspan></text>
  </g>
</svg>
