<svg xmlns="http://www.w3.org/2000/svg" xmlns:xlink="http://www.w3.org/1999/xlink" width="18.729" height="15.881" viewBox="0 0 18.729 15.881">
  <defs>
    <clipPath id="clip-path">
      <path id="Caminho_1737" data-name="Caminho 1737" d="M80.4-93.545H99.125v-15.881H80.4Z" fill="none"/>
    </clipPath>
  </defs>
  <g id="tecla_8" transform="translate(-134.396 -138.633)">
    <g id="Grupo_1789" data-name="Grupo 1789" transform="translate(54 248.059)" clip-path="url(#clip-path)">
      <g id="Grupo_1787" data-name="Grupo 1787" transform="translate(96.625 -98.045)">
        <path id="Caminho_1735" data-name="Caminho 1735" d="M0,0A2,2,0,0,1-2,2h-9.729a2,2,0,0,1-2-2V-6.88a2,2,0,0,1,2-2H-2a2,2,0,0,1,2,2Z" fill="#fff"/>
      </g>
      <g id="Grupo_1788" data-name="Grupo 1788" transform="translate(96.625 -98.045)">
        <path id="Caminho_1736" data-name="Caminho 1736" d="M0,0A2,2,0,0,1-2,2h-9.729a2,2,0,0,1-2-2V-6.88a2,2,0,0,1,2-2H-2a2,2,0,0,1,2,2Z" fill="none" stroke="#2b2e34" stroke-width="0.75"/>
      </g>
    </g>
    <text id="_8" data-name="8" transform="translate(141.841 149.321)" fill="#2b2e34" font-size="8" font-family="HelveticaNeueLTStd-MdCn, Helvetica Neue LT Std" font-weight="500"><tspan x="0" y="0">8</tspan></text>
  </g>
</svg>
