<svg xmlns="http://www.w3.org/2000/svg" xmlns:xlink="http://www.w3.org/1999/xlink" width="18.73" height="15.881" viewBox="0 0 18.73 15.881">
  <defs>
    <clipPath id="clip-path">
      <path id="Caminho_1740" data-name="Caminho 1740" d="M123.928-93.545h18.73v-15.881h-18.73Z" fill="none"/>
    </clipPath>
  </defs>
  <g id="tecla_9" transform="translate(-177.928 -138.633)">
    <g id="Grupo_1792" data-name="Grupo 1792" transform="translate(54 248.059)" clip-path="url(#clip-path)">
      <g id="Grupo_1790" data-name="Grupo 1790" transform="translate(140.158 -98.045)">
        <path id="Caminho_1738" data-name="Caminho 1738" d="M0,0A2,2,0,0,1-2,2h-9.729a2,2,0,0,1-2-2V-6.88a2,2,0,0,1,2-2H-2a2,2,0,0,1,2,2Z" fill="#fff"/>
      </g>
      <g id="Grupo_1791" data-name="Grupo 1791" transform="translate(140.158 -98.045)">
        <path id="Caminho_1739" data-name="Caminho 1739" d="M0,0A2,2,0,0,1-2,2h-9.729a2,2,0,0,1-2-2V-6.88a2,2,0,0,1,2-2H-2a2,2,0,0,1,2,2Z" fill="none" stroke="#2b2e34" stroke-width="0.75"/>
      </g>
    </g>
    <text id="_9" data-name="9" transform="translate(185.374 149.321)" fill="#2b2e34" font-size="8" font-family="HelveticaNeueLTStd-MdCn, Helvetica Neue LT Std" font-weight="500"><tspan x="0" y="0">9</tspan></text>
  </g>
</svg>
