<svg xmlns="http://www.w3.org/2000/svg" xmlns:xlink="http://www.w3.org/1999/xlink" width="18.73" height="15.88" viewBox="0 0 18.73 15.88">
  <defs>
    <clipPath id="clip-path">
      <path id="Caminho_1725" data-name="Caminho 1725" d="M36.863-62.365h18.73v-15.88H36.863Z" fill="none"/>
    </clipPath>
  </defs>
  <g id="tecla_4" transform="translate(-90.863 -169.814)">
    <g id="Grupo_1777" data-name="Grupo 1777" transform="translate(54 248.059)" clip-path="url(#clip-path)">
      <g id="Grupo_1775" data-name="Grupo 1775" transform="translate(53.093 -66.864)">
        <path id="Caminho_1723" data-name="Caminho 1723" d="M0,0A2,2,0,0,1-2,2h-9.73a2,2,0,0,1-2-2V-6.88a2,2,0,0,1,2-2H-2a2,2,0,0,1,2,2Z" fill="#fff"/>
      </g>
      <g id="Grupo_1776" data-name="Grupo 1776" transform="translate(53.093 -66.864)">
        <path id="Caminho_1724" data-name="Caminho 1724" d="M0,0A2,2,0,0,1-2,2h-9.73a2,2,0,0,1-2-2V-6.88a2,2,0,0,1,2-2H-2a2,2,0,0,1,2,2Z" fill="none" stroke="#2b2e34" stroke-width="0.75"/>
      </g>
    </g>
    <text id="_4" data-name="4" transform="translate(98.309 180.502)" fill="#2b2e34" font-size="8" font-family="HelveticaNeueLTStd-MdCn, Helvetica Neue LT Std" font-weight="500"><tspan x="0" y="0">4</tspan></text>
  </g>
</svg>
