<svg xmlns="http://www.w3.org/2000/svg" xmlns:xlink="http://www.w3.org/1999/xlink" width="18.731" height="15.881" viewBox="0 0 18.731 15.881">
  <defs>
    <clipPath id="clip-path">
      <path id="Caminho_1713" data-name="Caminho 1713" d="M36.864,0H55.6V-15.881H36.864Z" fill="none"/>
    </clipPath>
  </defs>
  <g id="tecla_0" transform="translate(-90.864 -232.178)">
    <g id="Grupo_1765" data-name="Grupo 1765" transform="translate(54 248.059)" clip-path="url(#clip-path)">
      <g id="Grupo_1763" data-name="Grupo 1763" transform="translate(53.094 -4.5)">
        <path id="Caminho_1711" data-name="Caminho 1711" d="M0,0A2,2,0,0,1-2,2h-9.73a2,2,0,0,1-2-2V-6.881a2,2,0,0,1,2-2H-2a2,2,0,0,1,2,2Z" fill="#fff"/>
      </g>
      <g id="Grupo_1764" data-name="Grupo 1764" transform="translate(53.094 -4.5)">
        <path id="Caminho_1712" data-name="Caminho 1712" d="M0,0A2,2,0,0,1-2,2h-9.73a2,2,0,0,1-2-2V-6.881a2,2,0,0,1,2-2H-2a2,2,0,0,1,2,2Z" fill="none" stroke="#2b2e34" stroke-width="0.75"/>
      </g>
    </g>
    <text id="_0" data-name="0" transform="translate(98.31 242.867)" fill="#2b2e34" font-size="8" font-family="HelveticaNeueLTStd-MdCn, Helvetica Neue LT Std" font-weight="500"><tspan x="0" y="0">0</tspan></text>
  </g>
</svg>
