<svg xmlns="http://www.w3.org/2000/svg" xmlns:xlink="http://www.w3.org/1999/xlink" width="18.729" height="15.881" viewBox="0 0 18.729 15.881">
  <defs>
    <clipPath id="clip-path">
      <path id="Caminho_1789" data-name="Caminho 1789" d="M80.395-1H99.124V-16.881H80.395Z" fill="none"/>
    </clipPath>
  </defs>
  <g id="tecla_ponto" transform="translate(-134.395 -231.178)">
    <g id="Grupo_1839" data-name="Grupo 1839" transform="translate(54 248.059)" clip-path="url(#clip-path)">
      <g id="Grupo_1837" data-name="Grupo 1837" transform="translate(96.624 -5.5)">
        <path id="Caminho_1786" data-name="Caminho 1786" d="M0,0A2,2,0,0,1-2,2h-9.729a2,2,0,0,1-2-2V-6.881a2,2,0,0,1,2-2H-2a2,2,0,0,1,2,2Z" fill="#fff"/>
      </g>
      <g id="Grupo_1838" data-name="Grupo 1838" transform="translate(96.624 -5.5)">
        <path id="Caminho_1787" data-name="Caminho 1787" d="M0,0A2,2,0,0,1-2,2h-9.729a2,2,0,0,1-2-2V-6.881a2,2,0,0,1,2-2H-2a2,2,0,0,1,2,2Z" fill="none" stroke="#2b2e34" stroke-width="0.75"/>
      </g>
      <path id="Caminho_1788" data-name="Caminho 1788" d="M89.212-9.575h1.1v1.27h-1.1Z" fill="#2b2e34"/>
    </g>
  </g>
</svg>
